<svg xmlns="http://www.w3.org/2000/svg" viewBox="0 0 67 32"><path fill="red" d="M8.64 30.38A9.5 9.5 0 0 1 9.84 32a1155 1155 0 0 0 26.64-3.83c11.02-1.77 24.56-5.76 24.86-6.5.3-.73-.9-8.84-2.23-9.87-1.07-.83-9.18-.25-13.1.14-1.59-.93-3.58-2.5-6.1-2.35-1.13.06-5.51 2.94-7.6 4.27l6.85 2.66c.45-.25 2.47-1.07 7-2.36a34.31 34.31 0 0 1 11.46-1.04l2.23 7.53-1.04.29-.9-1.18a361.42 361.42 0 0 1-26.05 6.49c-11.79 2.48-22.28 2.11-26.05 1.62L3.28 29.5c.74.4 2.41 1.21 3.13 1.33.89.15 2.08-.44 2.23-.44Z"/><path fill="red" d="M34.1 24.18c4.29-.82 9.03-2.5 10.87-3.24-7.6-3.05-23.35-9.2-25.61-9.44-2.26-.23-3.62.7-4.02 1.18l2.53 3.54 2.83-1.03c.6-.15.92.3.45.88-.48.6-2.09 1.13-2.68 1.33l.89 1.03c.9-.44 1.93-1.03 2.23-.3.13.34-1.09 1-1.78 1.19l1.63 2.36c-1.54.54-5 1.59-6.55 1.47-1.93-.15-3.42-2.5-4.61-3.68-1.2-1.18-3.58-3.25-5.36-3.25-1.43 0-3.58 1.18-4.47 1.77v1.18c.85-.25 2.74-.7 2.98-.59.3.15.3.44-.15.74C3.1 19.43.3 20.5.3 20.5s-.34.78-.3 1.03h1.5l4.31 5.46h1.94c-1.24-1.72-3.7-5.25-3.58-5.6.12-.36 1.84-.16 2.68 0 .25.24 1.02.97 2.09 1.9 1.07.95 3.22 1.29 4.17 1.34l-1.2 1.62 11.62-2.07 1.49 1.33c1.24-.1 4.79-.5 9.08-1.33ZM46.6 14.9H49l1.78 1.32.15-1.62 2.38-.44-1.19 2.95 2.83 2.65-1.49.44-1.79-1.62c0 .44.15 1.77 0 2.07-.11.23-2.77.73-4.01 1.03.99-.6 3.27-1.33 2.68-2.21-.2-.28-.7-.05-.9 0l.45-2.07-3.28-2.5Z"/><path fill="red" fill-rule="evenodd" d="m63.43 12.98-2.24-.45c-.7-1.27-2.08-4.39-2.08-6.63s.6-4.87.9-5.9c.74 1.13 2.31 3.66 2.67 4.72.36 1.06.65 5.95.75 8.26ZM62.38 5.6l-.3 1.48-1.93-3.54.15-2.21 2.08 4.27ZM64.47 18.29l-1.64 1.32c-.15 1.82-.24 5.9.6 7.67a36.9 36.9 0 0 0 2.68 4.57c.44-1.08 1.22-3.9.74-6.49-.48-2.6-1.79-5.8-2.38-7.07Zm-.45 8.4v-2.06l1.79 2.8v2.21l-1.79-2.95ZM62.24 18.58l-.6-4.87c.74-.1 2.44-.2 3.28.15.83.36 1.43.94 1.63 1.18-.34.69-1.25 2.18-2.08 2.66-.84.47-1.84.78-2.23.88Zm0-4.42.3 1.62c.99-.25 2.88-.83 2.52-1.18-.35-.35-2.03-.44-2.82-.44Z" clip-rule="evenodd"/></svg>
