<svg width="32" height="32" viewBox="0 0 32 32" fill="none" xmlns="http://www.w3.org/2000/svg">
<g clip-path="url(#clip0_6_3674)">
<g filter="url(#filter0_d_6_3674)">
<path d="M24.6779 14.8114C24.0679 15.313 23.5506 15.5925 23.5506 15.5925L23.5577 17.1824C23.9938 17.6587 24.424 18.0533 24.7461 18.7723C25.3574 17.6955 25.2398 16.1125 24.678 14.8114H24.6779ZM24.1819 20.016C24.1819 20.016 24.0573 19.3602 23.5271 18.7482L22.3175 18.777C22.3175 18.777 20.6871 20.1483 19.6926 20.1805C19.6926 20.1805 20.2404 21.1779 20.5178 21.6991C21.0644 21.5818 22.0272 21.1595 22.4151 20.7178C22.4151 20.7178 22.6714 21.5265 22.6232 22.4814C23.1674 22.1731 23.9174 21.3356 24.1819 20.016V20.016ZM22.6232 17.1445L22.6209 15.5603C22.6209 15.5603 21.898 15.3337 21.1268 14.7481C19.5775 14.977 17.7014 16.5025 17.7014 16.5025C17.7014 16.5025 18.335 17.6794 19.0285 18.9495C20.2475 19.1163 22.0437 17.6093 22.6232 17.1445H22.6232ZM26.7552 23.7411L25.7583 22.6609C25.4739 25.5807 24.0127 28.0599 21.329 29.789L20.9188 28.2141C18.6406 29.8247 14.7309 30.8693 11.3724 29.0102C11.7897 26.9279 12.16 24.818 11.3654 22.2916C9.50573 25.1102 7.86001 26.2146 7.86001 26.2146C6.6034 24.1495 6.71624 20.0068 7.09123 18.7873L5 19.4212C5 18.0292 6.02387 15.076 7.50736 13.417L6.20137 13.2123H6.20007C7.08759 11.4371 8.41239 9.90703 10.0334 8.75773L10.0357 8.75643C9.54902 9.50883 9.54196 11.3656 10.9679 12.072C10.3625 11.0332 10.2896 9.74927 10.922 9.08431C11.5544 8.4136 12.6183 8.64369 13.2977 9.16369C13.0955 8.58387 12.5031 7.85449 11.6156 7.80502H11.6143C13.2905 6.96059 15.1937 6.48546 17.2073 6.48546C17.5835 6.48546 17.9585 6.50156 18.3253 6.53377C18.9107 6.76386 19.77 7.57148 20.1708 8.07422C20.1708 8.07422 20.199 7.48174 19.8628 6.76616C22.0434 7.28616 23.0837 8.15475 23.5198 8.57351C23.6092 9.49617 23.8913 10.0495 24.2639 10.9262C23.5574 10.1519 21.7824 8.90254 20.9349 8.60343C20.9349 8.60343 20.8655 9.40299 20.574 9.78723C18.886 8.59538 18.0572 8.29511 18.0572 8.29511C16.2046 8.55511 15.0127 9.25458 14.365 9.80449L14.9292 10.275C13.8125 10.611 13.0872 11.5497 13.0872 11.5497C13.0954 11.567 14.0852 11.705 14.0852 11.705C14.0852 11.705 13.9841 12.8428 15.4394 13.5561C16.6866 14.167 18.4792 13.4088 20.1673 14.0715C19.0576 12.8175 18.29 12.2572 18.29 12.2572C18.29 12.2572 17.8492 12.1675 17.5388 12.1698C17.1509 12.1721 16.5726 12.2469 15.939 12.0053C15.6357 11.8891 15.2819 11.6843 15.0044 11.5141C15.0044 11.5141 15.7838 10.7306 16.9229 10.558C16.9229 10.558 17.9503 10.841 18.7637 11.4301C19.3045 10.9147 19.8687 10.9308 19.8687 10.9308C19.8687 10.9308 19.3092 11.4416 19.4784 12.0605C20.2907 12.7692 21.1723 13.7839 21.1723 13.7839C22.0704 13.303 24.023 13.4134 24.4238 13.869C23.916 13.2236 23.1836 12.6852 22.617 12.225C22.5477 11.9834 21.9294 11.1413 21.8247 11.0631C21.8247 11.0631 22.4125 11.2402 22.938 11.7016C23.0884 11.491 23.3705 11.2771 23.7549 11.1827C24.1499 11.5071 24.2204 12.0053 24.2099 12.0881C24.0324 12.2964 23.856 12.3815 23.856 12.3815L24.8082 13.3904L24.9034 12.6668C27.0969 15.7327 28.2924 19.2807 26.7548 23.741L26.7552 23.7411ZM9.43252 4.33771C10.6974 4.90488 11.5097 5.62045 11.6578 5.72975C11.5908 5.40992 11.3416 3.87062 11.1981 2.9146C11.9352 3.41505 13.6455 4.577 14.2086 4.95434C14.4378 4.26293 15.2325 2.0046 15.2325 2.0046C15.2325 2.0046 16.669 4.28018 16.9146 4.64948C17.2144 4.34231 18.9306 2.47283 19.375 2C19.449 3.07567 19.5501 4.61381 19.576 4.84505C19.6618 4.73116 20.3189 3.82921 21.4204 2.99859C20.9431 3.91894 20.7151 5.18904 20.614 6.20948C19.5302 5.91382 18.3864 5.75505 17.2085 5.75505C14.9457 5.75505 12.8203 6.33718 10.983 7.35993C10.6492 6.37399 10.1261 5.14762 9.43252 4.33771Z" fill="white"/>
</g>
</g>
<defs>
<filter id="filter0_d_6_3674" x="-2.04976" y="-5.04976" width="36.5483" height="42.0995" filterUnits="userSpaceOnUse" color-interpolation-filters="sRGB">
<feFlood flood-opacity="0" result="BackgroundImageFix"/>
<feColorMatrix in="SourceAlpha" type="matrix" values="0 0 0 0 0 0 0 0 0 0 0 0 0 0 0 0 0 0 127 0" result="hardAlpha"/>
<feOffset/>
<feGaussianBlur stdDeviation="3.52488"/>
<feComposite in2="hardAlpha" operator="out"/>
<feColorMatrix type="matrix" values="0 0 0 0 0 0 0 0 0 0 0 0 0 0 0 0 0 0 0.25 0"/>
<feBlend mode="normal" in2="BackgroundImageFix" result="effect1_dropShadow_6_3674"/>
<feBlend mode="normal" in="SourceGraphic" in2="effect1_dropShadow_6_3674" result="shape"/>
</filter>
<clipPath id="clip0_6_3674">
<rect width="32" height="32" fill="white"/>
</clipPath>
</defs>
</svg>
