<svg xmlns="http://www.w3.org/2000/svg" xmlns:xlink="http://www.w3.org/1999/xlink" preserveAspectRatio="xMidYMid meet" width="32" height="32" viewBox="0 0 32 32" style="width:100%;height:100%"><defs><animate repeatCount="indefinite" dur="1s" begin="0s" xlink:href="#_R_G_L_0_G_L_0_G_L_0_G_L_1_G_L_4_G" fill="freeze" attributeName="opacity" from="0" to="0" keyTimes="0;0.1333333;0.3666667;0.5666667;1" values="0;1;1;0;0" keySplines="0.167 0.167 0.833 0.833;0.167 0.167 0.833 0.833;0.167 0.167 0.833 0.833;0 0 0 0" calcMode="spline"/><animateMotion repeatCount="indefinite" dur="1s" begin="0s" xlink:href="#_R_G_L_0_G_L_0_G_L_0_G_L_1_G_L_4_G" fill="freeze" keyTimes="0;0.5666667;1" path="M130.5 121.5 C130.5,121.5 214,203 214,203 C214,203 214,203 214,203 " keyPoints="0;1;1" keySplines="0.333 0 0.833 0.833;0 0 0 0" calcMode="spline"/><animateTransform repeatCount="indefinite" dur="1s" begin="0s" xlink:href="#_R_G_L_0_G_L_0_G_L_0_G_L_1_G_L_4_G" fill="freeze" attributeName="transform" from="0" to="513" type="rotate" additive="sum" keyTimes="0;0.5666667;1" values="0;513;513" keySplines="0.167 0.167 0.833 0.833;0 0 0 0" calcMode="spline"/><animateTransform repeatCount="indefinite" dur="1s" begin="0s" xlink:href="#_R_G_L_0_G_L_0_G_L_0_G_L_1_G_L_4_G" fill="freeze" attributeName="transform" from="0.5 0.5" to="1 1" type="scale" additive="sum" keyTimes="0;0.5666667;1" values="0.5 0.5;1 1;1 1" keySplines="0.167 0.167 0.833 0.833;0 0 0 0" calcMode="spline"/><animate repeatCount="indefinite" dur="1s" begin="0s" xlink:href="#_R_G_L_0_G_L_0_G_L_0_G_L_1_G_L_3_G" fill="freeze" attributeName="opacity" from="0" to="0" keyTimes="0;0.1;0.3333333;0.5666667;0.7666667;1" values="0;0;1;1;0;0" keySplines="0.167 0.167 0.833 0.833;0.167 0.167 0.833 0.833;0.167 0.167 0.833 0.833;0.167 0.167 0.833 0.833;0 0 0 0" calcMode="spline"/><animateMotion repeatCount="indefinite" dur="1s" begin="0s" xlink:href="#_R_G_L_0_G_L_0_G_L_0_G_L_1_G_L_3_G" fill="freeze" keyTimes="0;0.1;0.7666667;1" path="M147.91 147.74 C147.91,147.74 147.91,147.74 147.91,147.74 C147.91,147.74 189.19,196.62 189.19,196.62 C189.19,196.62 189.19,196.62 189.19,196.62 " keyPoints="0;0;1;1" keySplines="0.333 0 0.833 0.833;0.333 0 0.833 0.833;0 0 0 0" calcMode="spline"/><animateTransform repeatCount="indefinite" dur="1s" begin="0s" xlink:href="#_R_G_L_0_G_L_0_G_L_0_G_L_1_G_L_3_G" fill="freeze" attributeName="transform" from="0" to="246" type="rotate" additive="sum" keyTimes="0;0.1;0.7666667;1" values="0;0;246;246" keySplines="0.167 0.167 0.833 0.833;0.167 0.167 0.833 0.833;0 0 0 0" calcMode="spline"/><animateTransform repeatCount="indefinite" dur="1s" begin="0s" xlink:href="#_R_G_L_0_G_L_0_G_L_0_G_L_1_G_L_3_G" fill="freeze" attributeName="transform" from="0.5 0.5" to="1 1" type="scale" additive="sum" keyTimes="0;0.1;0.7666667;1" values="0.5 0.5;0.5 0.5;1 1;1 1" keySplines="0.167 0.167 0.833 0.833;0.167 0.167 0.833 0.833;0 0 0 0" calcMode="spline"/><animate repeatCount="indefinite" dur="1s" begin="0s" xlink:href="#_R_G_L_0_G_L_0_G_L_0_G_L_1_G_L_2_G" fill="freeze" attributeName="opacity" from="0" to="0" keyTimes="0;0.1666667;0.3666667;0.4666667;1" values="0;1;1;0;0" keySplines="0.167 0.167 0.833 0.833;0.167 0.167 0.833 0.833;0.167 0.167 0.833 0.833;0 0 0 0" calcMode="spline"/><animateMotion repeatCount="indefinite" dur="1s" begin="0s" xlink:href="#_R_G_L_0_G_L_0_G_L_0_G_L_1_G_L_2_G" fill="freeze" keyTimes="0;0.4666667;0.6666667;1" path="M87.3 138.2 C87.3,138.2 45.51,106.49 45.51,106.49 C45.51,106.49 14.51,79.49 14.51,79.49 C14.51,79.49 14.51,79.49 14.51,79.49 " keyPoints="0;0.56;1;1" keySplines="0.333 0 0.833 0.833;0.167 0.167 0.833 0.833;0 0 0 0" calcMode="spline"/><animateTransform repeatCount="indefinite" dur="1s" begin="0s" xlink:href="#_R_G_L_0_G_L_0_G_L_0_G_L_1_G_L_2_G" fill="freeze" attributeName="transform" from="0" to="-83" type="rotate" additive="sum" keyTimes="0;0.4666667;1" values="0;-83;-83" keySplines="0.167 0.167 0.833 0.833;0 0 0 0" calcMode="spline"/><animateTransform repeatCount="indefinite" dur="1s" begin="0s" xlink:href="#_R_G_L_0_G_L_0_G_L_0_G_L_1_G_L_2_G" fill="freeze" attributeName="transform" from="0.5 0.5" to="1 1" type="scale" additive="sum" keyTimes="0;0.4666667;1" values="0.5 0.5;1 1;1 1" keySplines="0.167 0.167 0.833 0.833;0 0 0 0" calcMode="spline"/><animate repeatCount="indefinite" dur="1s" begin="0s" xlink:href="#_R_G_L_0_G_L_0_G_L_0_G_L_1_G_L_1_G" fill="freeze" attributeName="opacity" from="0" to="0" keyTimes="0;0.3;0.4666667;0.7;0.8333333;0.8666667;0.9666667;1" values="0;0;1;1;0;0;0;0" keySplines="0.167 0.167 0.833 0.833;0.167 0.167 0.833 0.833;0.167 0.167 0.833 0.833;0.167 0.167 0.833 0.833;0.167 0.167 0.833 0.833;0.167 0.167 0.833 0.833;0 0 0 0" calcMode="spline"/><animateMotion repeatCount="indefinite" dur="1s" begin="0s" xlink:href="#_R_G_L_0_G_L_0_G_L_0_G_L_1_G_L_1_G" fill="freeze" keyTimes="0;0.3;0.8666667;1" path="M82.05 143.29 C82.05,143.29 82.05,143.29 82.05,143.29 C82.05,143.29 43.55,189.79 43.55,189.79 C43.55,189.79 43.55,189.79 43.55,189.79 " keyPoints="0;0;1;1" keySplines="0.333 0 0.833 0.833;0.333 0 0.833 0.833;0 0 0 0" calcMode="spline"/><animateTransform repeatCount="indefinite" dur="1s" begin="0s" xlink:href="#_R_G_L_0_G_L_0_G_L_0_G_L_1_G_L_1_G" fill="freeze" attributeName="transform" from="0" to="58" type="rotate" additive="sum" keyTimes="0;0.3;0.8666667;1" values="0;0;58;58" keySplines="0.167 0.167 0.833 0.833;0.167 0.167 0.833 0.833;0 0 0 0" calcMode="spline"/><animateTransform repeatCount="indefinite" dur="1s" begin="0s" xlink:href="#_R_G_L_0_G_L_0_G_L_0_G_L_1_G_L_1_G" fill="freeze" attributeName="transform" from="0.5 0.5" to="1 1" type="scale" additive="sum" keyTimes="0;0.3;0.8666667;1" values="0.5 0.5;0.5 0.5;1 1;1 1" keySplines="0.167 0.167 0.833 0.833;0.167 0.167 0.833 0.833;0 0 0 0" calcMode="spline"/><animate repeatCount="indefinite" dur="1s" begin="0s" xlink:href="#_R_G_L_0_G_L_0_G_L_0_G_L_1_G_L_0_G" fill="freeze" attributeName="opacity" from="0" to="0" keyTimes="0;0.1333333;0.2666667;0.3666667;0.6333333;1" values="0;0;1;1;0;0" keySplines="0.167 0.167 0.833 0.833;0.167 0.167 0.833 0.833;0.167 0.167 0.833 0.833;0.167 0.167 0.833 0.833;0 0 0 0" calcMode="spline"/><animateMotion repeatCount="indefinite" dur="1s" begin="0s" xlink:href="#_R_G_L_0_G_L_0_G_L_0_G_L_1_G_L_0_G" fill="freeze" keyTimes="0;0.1333333;0.6333333;1" path="M183.48 73 C183.48,73 183.48,73 183.48,73 C183.48,73 213.06,43 213.06,43 C213.06,43 213.06,43 213.06,43 " keyPoints="0;0;1;1" keySplines="0.333 0 0.667 1;0.333 0 0.667 1;0 0 0 0" calcMode="spline"/><animateTransform repeatCount="indefinite" dur="1s" begin="0s" xlink:href="#_R_G_L_0_G_L_0_G_L_0_G_L_1_G_L_0_G" fill="freeze" attributeName="transform" from="360" to="524" type="rotate" additive="sum" keyTimes="0;0.1333333;0.6333333;1" values="360;360;524;524" keySplines="0.167 0.167 0.833 0.833;0.167 0.167 0.833 0.833;0 0 0 0" calcMode="spline"/><animateTransform repeatCount="indefinite" dur="1s" begin="0s" xlink:href="#_R_G_L_0_G_L_0_G_L_0_G_L_1_G_L_0_G" fill="freeze" attributeName="transform" from="0.5 0.5" to="1 1" type="scale" additive="sum" keyTimes="0;0.1333333;0.6333333;1" values="0.5 0.5;0.5 0.5;1 1;1 1" keySplines="0.167 0.167 0.833 0.833;0.167 0.167 0.833 0.833;0 0 0 0" calcMode="spline"/><animateTransform repeatCount="indefinite" dur="1s" begin="0s" xlink:href="#_R_G_L_0_G_L_0_G_L_0_G_L_0_G" fill="freeze" attributeName="transform" from="1.77 1.77" to="1.77 1.77" type="scale" additive="sum" keyTimes="0;0.5;0.9666667;1" values="1.77 1.77;2.13 2.13;1.77 1.77;1.77 1.77" keySplines="0.333 0 0.338 0.976;0.669 0.015 0.667 1;0 0 0 0" calcMode="spline"/><animate attributeType="XML" attributeName="opacity" dur="1s" from="0" to="1" xlink:href="#time_group"/></defs><g id="_R_G"><g id="_R_G_L_0_G" transform=" translate(16, 16) scale(0.14, 0.14) translate(-120, -120)"><g id="_R_G_L_0_G_L_0_G" transform=" translate(120, 120) translate(-117, -117)"><g id="_R_G_L_0_G_L_0_G_L_0_G" transform=" translate(116.697, 117.24) scale(1.8, 1.8) translate(-117, -117)"><g id="_R_G_L_0_G_L_0_G_L_0_G_L_2_G" transform=" translate(117.145, 116.87) translate(0, 0)"/><g id="_R_G_L_0_G_L_0_G_L_0_G_L_1_G" transform=" translate(111, 117) scale(0.63, 0.63) translate(-117, -117)"><g id="_R_G_L_0_G_L_0_G_L_0_G_L_1_G_L_4_G"><path id="_R_G_L_0_G_L_0_G_L_0_G_L_1_G_L_4_G_D_0_P_0" fill="#ffffff" fill-opacity="1" fill-rule="nonzero" d=" M-1.62 -1.51 C-2.8,-0.28 -4.39,-0.46 -4.39,0.15 C-4.39,0.15 -4.5,0.15 -4.5,0.15 C-4.5,0.77 -3.06,0.77 -1.84,2.18 C-0.34,3.85 -0.45,6 0.13,6 C0.72,6 0.56,3.72 2.1,2.06 C3.22,0.83 4.5,0.77 4.5,0.15 C4.5,-0.4 3.38,-0.34 2.32,-1.26 C0.45,-2.92 0.67,-6 0.13,-6 C-0.35,-5.94 -0.02,-3.17 -1.62,-1.51z "/></g><g id="_R_G_L_0_G_L_0_G_L_0_G_L_1_G_L_3_G"><path id="_R_G_L_0_G_L_0_G_L_0_G_L_1_G_L_3_G_D_0_P_0" fill="#ffffff" fill-opacity="1" fill-rule="nonzero" d=" M-5.62 -4.2 C-9.73,-0.72 -14.91,-1.32 -15,0.38 C-15.09,2.08 -10.27,2.17 -6.16,5.98 C-1.16,10.56 -1.61,16.5 0.36,16.5 C2.32,16.5 1.79,10.31 6.97,5.73 C10.81,2.33 15,2.25 15,0.55 C14.91,-0.98 11.16,-0.89 7.68,-3.43 C1.43,-8.02 2.05,-16.5 0.27,-16.5 C-1.43,-16.5 -0.27,-8.7 -5.62,-4.2z "/></g><g id="_R_G_L_0_G_L_0_G_L_0_G_L_1_G_L_2_G"><path id="_R_G_L_0_G_L_0_G_L_0_G_L_1_G_L_2_G_D_1_P_0" fill="#ffffff" fill-opacity="1" fill-rule="nonzero" d=" M-3.91 -2.67 C-6.66,-0.53 -10.36,-0.89 -10.36,0.18 C-10.36,0.18 -10.5,0.3 -10.5,0.3 C-10.5,1.36 -7.21,1.36 -4.32,3.85 C-0.89,6.7 -1.17,10.5 0.21,10.5 C1.72,10.5 1.3,6.58 4.87,3.62 C7.62,1.48 10.5,1.36 10.5,0.3 C10.5,-0.65 7.89,-0.53 5.42,-2.2 C1.03,-5.16 1.44,-10.5 0.21,-10.5 C-1.03,-10.5 -0.21,-5.52 -3.91,-2.67z "/></g><g id="_R_G_L_0_G_L_0_G_L_0_G_L_1_G_L_1_G"><path id="_R_G_L_0_G_L_0_G_L_0_G_L_1_G_L_1_G_D_1_P_0" fill="#ffffff" fill-opacity="1" fill-rule="nonzero" d=" M-3.94 -2.61 C-6.78,-0.43 -10.5,-0.81 -10.5,0.33 C-10.5,0.33 -10.39,0.14 -10.39,0.14 C-10.5,1.28 -7.11,1.28 -4.27,3.75 C-0.76,6.7 -0.99,10.5 0.33,10.5 C1.75,10.5 1.31,6.6 4.92,3.66 C7.55,1.47 10.5,1.38 10.5,0.33 C10.39,-0.71 7.76,-0.62 5.36,-2.23 C0.98,-5.08 1.53,-10.5 0.22,-10.5 C-0.98,-10.4 -0.22,-5.46 -3.94,-2.61z "/></g><g id="_R_G_L_0_G_L_0_G_L_0_G_L_1_G_L_0_G"><path id="_R_G_L_0_G_L_0_G_L_0_G_L_1_G_L_0_G_D_1_P_0" fill="#ffffff" fill-opacity="1" fill-rule="nonzero" d=" M-3.94 -3.77 C-6.78,-0.63 -10.43,-1.17 -10.5,0.36 C-10.5,0.36 -10.5,0.27 -10.5,0.27 C-10.57,1.8 -7.22,1.88 -4.3,5.39 C-0.8,9.61 -1.09,15 0.29,15 C1.68,15 1.24,9.34 4.89,5.21 C7.51,2.07 10.5,1.98 10.5,0.45 C10.43,-0.9 7.88,-0.81 5.4,-3.14 C1.02,-7.27 1.46,-15 0.22,-15 C-0.95,-14.91 -0.14,-7.9 -3.94,-3.77z "/></g></g><g id="_R_G_L_0_G_L_0_G_L_0_G_L_0_G" transform=" translate(117.145, 116.885)"><path id="_R_G_L_0_G_L_0_G_L_0_G_L_0_G_D_0_P_0" fill="#ffffff" fill-opacity="1" fill-rule="nonzero" d=" M21.26 -6.79 C21.26,-6.79 2.51,16.52 2.51,16.52 C2.51,16.52 10.91,-6.94 10.91,-6.94 C10.91,-6.94 21.26,-6.79 21.26,-6.79z  M8.72 -7.1 C8.72,-7.1 0.17,17.38 0.17,17.38 C0.17,17.38 -8.53,-7.1 -8.53,-7.1 C-8.53,-7.1 8.72,-7.1 8.72,-7.1z  M-1.78 16.52 C-1.78,16.52 -20.8,-7.1 -20.8,-7.1 C-20.8,-7.1 -20.83,-7.1 -20.83,-7.1 C-20.83,-7.1 -10.9,-7.24 -10.9,-7.24 C-10.9,-7.24 -1.78,16.52 -1.78,16.52z  M-21.64 -8.83 C-21.64,-8.83 -16.39,-16.51 -16.39,-16.51 C-16.39,-16.51 -11.98,-9.13 -11.98,-9.13 C-11.98,-9.13 -21.64,-8.83 -21.64,-8.83z  M-14.62 -17.23 C-14.62,-17.23 -2.35,-17.23 -2.35,-17.23 C-2.35,-17.23 -9.94,-9.55 -9.94,-9.55 C-9.94,-9.55 -14.62,-17.23 -14.62,-17.23z  M-7.72 -9.13 C-7.72,-9.13 0.14,-16.82 0.14,-16.82 C0.14,-16.82 7.46,-9.13 7.46,-9.13 C7.46,-9.13 -7.72,-9.13 -7.72,-9.13z  M2.47 -17.38 C2.47,-17.38 14.9,-17.23 14.9,-17.23 C14.9,-17.23 10.07,-9.55 10.07,-9.55 C10.07,-9.55 2.47,-17.38 2.47,-17.38z  M12.14 -9.28 C12.14,-9.28 16.82,-16.37 16.82,-16.37 C16.82,-16.37 21.65,-8.98 21.65,-8.98 C21.65,-8.98 12.14,-9.28 12.14,-9.28z "/></g></g></g></g></g><g id="time_group"/></svg>