<svg xmlns="http://www.w3.org/2000/svg" xmlns:xlink="http://www.w3.org/1999/xlink" xml:space="preserve" viewBox="0 0 150 47.2"><defs><path id="a" d="M0 0h150v47.2H0z"/></defs><clipPath id="b"><use xlink:href="#a" overflow="visible"/></clipPath><g clip-path="url(#b)"><path fill="#c00" d="M40.2 34.1H0l8 6.1-8 6h37.1l.4-3.8-5.8-6.4 8.5-1.9zm19.4 11.1.6-3.5-2.3-6.6h2.7l1.2 3.5.1.4v.4h.1l.4-.8 2.5-3.5h2.5l-4.5 6.5-.6 3.6h-2.7zm7.1-4.7.1-.6c.3-1.7 1-2.9 1.9-3.7 1-.8 2.2-1.2 3.6-1.2 1.3 0 2.4.4 3.1 1.2.8.8 1 2 .7 3.7l-.1.6a6 6 0 0 1-2 3.7c-1 .8-2.3 1.2-3.6 1.2-1.3 0-2.4-.4-3.1-1.2-.7-.8-.9-2.1-.6-3.7zm2.6.3c-.2 1-.1 1.6.2 2 .3.4.7.6 1.3.6s1.1-.2 1.5-.6c.4-.4.7-1.1.9-2l.2-1.3c.2-1 .1-1.6-.2-2-.3-.4-.8-.6-1.3-.6s-1.1.2-1.5.6c-.4.4-.7 1.1-.9 2l-.2 1.3zm8.1.5 1-6.1H81l-1 6.2c-.2.8-.1 1.3.1 1.6.2.3.6.4 1 .4.5 0 .9-.1 1.2-.4.4-.3.6-.8.7-1.6l1.1-6.3h2.5l-1.1 6c-.3 1.5-.8 2.5-1.7 3.2-.9.7-2 1-3.1 1-1.2 0-2.1-.3-2.8-1-.6-.5-.8-1.6-.5-3zm9.3 3.9 1.8-10h3.9c1.2 0 2.1.3 2.8.9.6.6.8 1.3.6 2.4-.1 1-.7 1.9-1.5 2.5-.8.6-1.8.8-3.1.8H90l-.6 3.3-2.7.1zm3.6-5.2h1.2c.5 0 .9-.1 1.2-.4.2-.2.4-.6.5-1.1.1-.5 0-.8-.2-1.1-.2-.2-.5-.4-1-.4h-1.2l-.5 3zm1.8 5.2-1.5-4.6h2.8l1.6 4.6h-2.9zm8.8 0-.5-10h2.6l.2 6.3v.8h.1l.2-.8 2.6-6.3h3l.4 6.3v.4l-.1.4h.1l.2-.8 2.4-6.3h2.2l-4 10h-3.1l-.4-6.3v-.8l-.3.8-2.7 6.3h-2.9zm12.6 0 1.8-10h2.6l-1.7 10h-2.7zm4.6 0 1.7-10h2.8l2 5.7.2.8h.1l.1-.8 1-5.6h2.2l-1.8 10h-2.9l-1.9-5.6-.2-.8h-.1l-.1.9-1 5.5h-2.1zm9.7 0 .3-1.6 5.5-6.5h-4.2l.4-1.9h7.7l-.3 1.8-5.5 6.3h4.4l-.4 1.9h-7.9zM52.1 16.1c-.8-1.2-2-2-3.3-2.5l-.4-.2h.1l.3-.2a6 6 0 0 0 3.1-2.6c.4-.8.6-1.7.7-2.5.1-1.2-.1-2.5-.7-3.6a7.6 7.6 0 0 0-2.9-3A8.9 8.9 0 0 0 45.1.3C43 0 40.8.1 38.8.8a9.3 9.3 0 0 0-3.6 2.1c-.2.2-.2.2 0 .4a8 8 0 0 1 1.3 3 6.3 6.3 0 0 1-2 5.9l-1.8 1.1-.2.1.2.2.8.4a7 7 0 0 1 3.4 4 8 8 0 0 1-.2 5.3 7 7 0 0 1-1.6 2.6c-.1.1-.2.2 0 .4.9.8 2 1.5 3.2 1.9 1.7.6 3.5.8 5.2.7 2.2 0 4.4-.6 6.2-1.8a7.7 7.7 0 0 0 3.5-6.5c.1-1.8-.3-3.3-1.1-4.5M39.7 5.4a4 4 0 0 1 2.7-1 6 6 0 0 1 2.3.2c1.4.4 2.4 1.7 2.5 3.2v.5c.1 1.2-.5 2.4-1.5 3.1l-1.5.6c-1.1.1-2.2 0-3.2-.3a3.5 3.5 0 0 1-2.4-2.9c-.3-1.2.2-2.6 1.1-3.4M48 20.2c0 1.1-.5 2.2-1.3 3-.7.6-1.6 1-2.6 1.1a7 7 0 0 1-3.8-.4 3.7 3.7 0 0 1-2.4-3 4.1 4.1 0 0 1 3.2-5c.6-.2 1.3-.2 1.9-.2 1.1-.1 2.2.2 3.1.8 1.3.7 2 2.2 1.9 3.7M1.3 16.1c.8-1.2 2-2 3.3-2.5l.4-.2h-.1l-.4-.2a6 6 0 0 1-3.1-2.6C1.1 9.7.8 8.8.8 8c-.2-1.3.1-2.5.6-3.6a7.5 7.5 0 0 1 3-3.1C5.6.7 6.9.2 8.3.1c2.1-.3 4.3-.2 6.3.5 1.4.4 2.6 1.2 3.6 2.1.2.2.2.2 0 .4A6.7 6.7 0 0 0 17 8.9c.3 1.2 1 2.3 1.9 3.1a17.4 17.4 0 0 0 2 1.2l-.2.2-.8.4a6.8 6.8 0 0 0-3.4 4 8 8 0 0 0 .2 5.3 7 7 0 0 0 1.6 2.6c.1.1.2.2 0 .4-.9.8-2 1.5-3.2 1.9-1.7.6-3.5.8-5.3.7-2.2 0-4.3-.6-6.2-1.7A7.7 7.7 0 0 1 0 20.4c-.1-1.5.3-3 1.3-4.3M13.5 5.4c-.7-.6-1.7-1-2.7-1-.8-.1-1.6 0-2.3.2A3.4 3.4 0 0 0 6 7.7v.5a3.5 3.5 0 0 0 3 3.7c1.1.2 2.2.2 3.3-.2a3.5 3.5 0 0 0 2.4-2.9c.2-1.2-.2-2.5-1.2-3.4M5.2 20.2a4 4 0 0 0 1.4 3c.7.6 1.6 1 2.6 1.1a7 7 0 0 0 3.8-.4 3.7 3.7 0 0 0 2.4-3 4.1 4.1 0 0 0-3.2-5c-.6-.2-1.3-.2-2-.2-1.1 0-2.2.2-3.1.8-1.2.7-1.9 2.2-1.9 3.7"/><path fill="#f8f8f8" d="M57.2 20.1h5.9c0 2.2 1.1 3.2 2.9 3.2 1.8 0 2.8-1.1 2.8-2.5 0-4.6-10.9-5.2-10.9-13.5 0-4.2 3-7.3 8.1-7.3s8.3 3 8.3 8.1h-5.9c0-1.8-.8-2.7-2.5-2.7-1.5 0-2.4.8-2.4 2.1 0 4.3 11.1 4.6 11.1 13.4 0 4.5-3.2 7.9-8.7 7.9-5.3-.1-8.7-3.1-8.7-8.7zM93.1 5.8h-5.4v22.4h-5.8V5.8h-5.4V.5h16.7l-.1 5.3zm11.7 17.8h-5.9l-.9 4.6h-5.8L98.9.5h6.1l6.7 27.7h-5.9l-1-4.6zm-1.1-5.3-.6-3.1c-.4-2-.8-5.4-1.1-7.6h-.2l-1.2 7.6-.6 3.2 3.7-.1zm18 .6h-2v9.3H114V.5h8.1c5.6 0 8.9 3.4 8.9 9.2 0 3.8-1.4 6.5-3.9 8l5.3 10.4h-6.2l-4.5-9.2zm-2-5.3h2.4c2 0 3.1-1.3 3.1-3.8s-1.2-4-3.2-4h-2.4l.1 7.8zm30.3 9.3v5.4h-16.1v-3.8l8.9-18.6h-8.2V.5h15.2v3.8L141 22.8h9zM26.7 15.6l3.4 4.6-3.4 4.6-3.4-4.6 3.4-4.6zM24.6 4c1.2 0 2.1 1 2.1 2.1 0-1.2 1-2.1 2.1-2.1 1 0 1.8.8 1.8 1.8 0 .7-.4 1.4-.4 1.4L28.9 9c-1.7 2.1-2.2 3.7-2.2 3.7s-.5-1.6-2.2-3.7l-1.3-1.8s-.4-.7-.4-1.4c-.1-.9.7-1.8 1.8-1.8z"/><path fill="#c00" fill-rule="evenodd" d="m47.9 36.8-2.7-4.6-2.8 4.6-5.3 1.1 3.6 4-.5 5.4 5-2.1 5 2.1-.5-5.3 3.6-4-3.1-.7-4.8 3.3 2.8-3.7h-.3v-.1z" clip-rule="evenodd"/></g></svg>